# xmcd
#
# Track frame offsets: 
#        150
#        33363
#        64360
#        80393
#        105153
#        123822
#        156706
#        175337
#        196968
#
# Disc length: 3012 seconds
#
# Revision: 1
# Processed by: cddbd v1.5.2PL0 Copyright (c) Steve Scherf et al.
# Submitted via: ExactAudioCopy v0.95b4
#
DISCID=710bc209
DTITLE=Bernard Allison -  Triple Fret
DYEAR=2005
DGENRE=Blues
TTITLE0=Bottle Of Whiskey
TTITLE1=Bluesman
TTITLE2=Get Drunk And Pop The Trunk
TTITLE3=Don't Tie Me Down
TTITLE4=I'm Praying For You
TTITLE5=Where's Lucky
TTITLE6=Good To Me
TTITLE7=Ain't Nothing But The Truth
TTITLE8=Take It Slow
EXTD=
EXTT0=
EXTT1=
EXTT2=
EXTT3=
EXTT4=
EXTT5=
EXTT6=
EXTT7=
EXTT8=
PLAYORDER=
